# xmcd CD database file
#
# Track frame offsets:
#	150
#	37732
#	52715
#	75185
#	91585
#	111130
#	129147
#	148030
#	162807
#	186097
#	203310
#	223985
#	248072
#	269177
#	287612
#	301120
#
# Disc length: 4243 seconds
#
# Revision: 4
# Processed by: cddbd v1.5.2PL0 Copyright (c) Steve Scherf et al.
# Submitted via: CDex 1.51
#
DISCID=c6109110
DTITLE=Rino Gaetano - Gianna e le altre...
DYEAR=1990
DGENRE=Blues
TTITLE0=Ma il cielo è sempre piu' blu
TTITLE1=Mio fratello è figlio unico
TTITLE2=Sfiorivano le viole
TTITLE3=Berta filava
TTITLE4=Aida
TTITLE5=Spendi Spandi Effendi
TTITLE6=Escluso il cane
TTITLE7=E cantava le canzoni
TTITLE8=Nuntereggae piu'
TTITLE9=Gianna
TTITLE10=Resta vile maschio, dove vai ?
TTITLE11=Ahi Maria
TTITLE12=Nel letto di Lucia
TTITLE13=E io ci sto
TTITLE14=Solo con io
TTITLE15=Le beatitudini
EXTD=YEAR: 1990
EXTT0=
EXTT1=
EXTT2=
EXTT3=
EXTT4=
EXTT5=
EXTT6=
EXTT7=
EXTT8=
EXTT9=
EXTT10=
EXTT11=
EXTT12=
EXTT13=
EXTT14=
EXTT15=
PLAYORDER=
